<svg width="40" height="50" viewBox="0 0 40 50" fill="none" xmlns="http://www.w3.org/2000/svg">
<g clip-path="url(#clip0_66_197)">
<path d="M23.0259 36.6889C23.3487 36.8857 23.7267 37 24.1339 37C24.9452 37 25.649 36.5514 26.0168 35.893C26.0619 35.8134 26.1593 35.783 26.2393 35.8278C26.6857 36.0753 27.1946 36.22 27.7413 36.22C29.4629 36.22 30.8937 34.8105 30.8937 33.0972C30.8937 33.0769 30.9591 33.0885 30.9591 33.0682C31.5073 33.1218 31.2209 33.2404 34.7586 32.6717C34.792 32.6659 34.8254 32.65 34.8487 32.6269C38.0694 29.4736 38.1014 26.2712 36.755 23.9631C36.7142 23.8922 36.7331 23.8053 36.8 23.7576C38.1319 22.8039 39 21.2483 39 19.4915C39 17.2008 37.5169 15.2732 35.4594 14.5569C35.3576 14.5207 35.3184 14.4035 35.3809 14.3152C35.8825 13.5946 36.1864 12.7307 36.1864 11.7871C36.1864 9.3155 34.1726 7.31126 31.6891 7.31126C31.5946 7.31126 31.5044 7.31994 31.4128 7.33152C31.3023 7.34599 31.2136 7.24614 31.2383 7.13906C31.3852 6.50522 31.2718 5.77878 30.2874 4.88447C30.2757 4.87434 30.2626 4.86566 30.251 4.85842C29.4905 4.43732 28.7839 4.48797 28.2066 4.76726C28.1456 4.79765 28.0714 4.78607 28.022 4.73687C23.4999 0.252299 20.6601 2.49965 20.0785 3.06257C20.0175 3.1219 19.9186 3.1219 19.8575 3.06112C19.2861 2.49531 16.5088 0.250852 12.0013 4.74555C11.9519 4.79475 11.8777 4.80633 11.8152 4.77449C11.235 4.48652 10.5196 4.43008 9.75335 4.84974C9.74026 4.85698 9.72718 4.86711 9.71554 4.87724C8.72825 5.77299 8.61338 6.50088 8.76024 7.13616C8.78495 7.24325 8.69626 7.3431 8.58575 7.32863C8.4956 7.31705 8.404 7.30837 8.30948 7.30837C5.82597 7.30837 3.81212 9.3126 3.81212 11.7843C3.81212 12.7263 4.11602 13.5917 4.61766 14.3123C4.67873 14.4006 4.64093 14.5193 4.53914 14.554C2.48458 15.2718 1 17.1979 1 19.4901C1 21.2483 1.86806 22.8025 3.19997 23.7561C3.26686 23.8039 3.28576 23.8922 3.24504 23.9616C2.72159 24.8588 2.40606 25.8935 2.40606 27.0063C2.40606 30.381 5.15421 33.116 8.54504 33.116C8.75151 33.116 8.94635 33.0755 9.14701 33.0552C9.14701 33.0755 9.1412 33.0943 9.1412 33.116C9.1412 34.8293 10.5371 36.22 12.2601 36.22C12.8068 36.22 13.3158 36.0739 13.7621 35.8278C13.8421 35.783 13.941 35.8119 13.9846 35.893C14.3539 36.5528 15.0562 37 15.8691 37C16.2355 37 16.5786 36.9074 16.8796 36.7453" stroke="black" stroke-miterlimit="10"/>
<path d="M10.6763 19.3633C10.4701 20.3348 10.3612 21.3527 10.3612 22.4026C10.3612 27.7435 13.1958 32.277 17.131 33.8918C17.2748 33.9513 17.3721 34.0849 17.3808 34.2403C17.5739 37.3725 16.6954 44.6055 4.66456 45.3141C3.79039 45.365 3.56095 46.5412 4.348 46.9245C7.15786 48.2924 13.2481 49.5151 20.3068 49.5151C27.367 49.5151 33.4558 48.291 36.2656 46.9245C37.0541 46.5412 36.8232 45.3664 35.9476 45.3141C26.6686 44.7681 24.0242 40.3406 23.3882 36.9064C23.1994 35.887 23.1878 34.9562 23.2314 34.2403C23.2416 34.0849 23.3374 33.9527 23.4812 33.8932C27.4164 32.2785 30.2509 27.7449 30.2509 22.404C30.2509 21.4427 30.1595 20.5061 29.9852 19.6101" stroke="black" stroke-miterlimit="10"/>
<path d="M31.6376 12.98L21.2244 8.55688C20.8425 8.39424 20.4127 8.38698 20.0264 8.5351L8.95837 12.7651C8.30055 13.0163 7.8838 13.6698 7.93172 14.3726L8.18729 18.0654C8.25844 19.092 9.26186 19.7861 10.2478 19.4884C11.1699 19.2111 12.4042 18.896 13.9043 18.6433C13.9769 18.6317 14.0321 18.5707 14.0379 18.4981C14.3065 15.1713 15.3971 13.7279 15.8109 13.2922C15.8632 13.2371 15.9547 13.2792 15.9474 13.3547C15.8734 14.0444 15.6657 16.2749 15.8676 18.2164C15.8763 18.3035 15.9547 18.3674 16.0418 18.3587C18.0632 18.151 20.4243 18.0973 23.0628 18.3413C23.1485 18.3485 23.2269 18.2904 23.2371 18.2048C23.452 16.4143 23.3184 13.1935 23.2734 12.2525C23.269 12.1727 23.3721 12.1378 23.4186 12.2032C23.9254 12.9263 25.4704 15.4007 25.4516 18.6404C26.9327 18.8713 28.4792 19.1908 30.0896 19.638C31.0233 19.8979 31.973 19.2721 32.1037 18.3108L32.5989 14.6718C32.6962 13.9544 32.3027 13.2618 31.6376 12.98Z" stroke="black" stroke-miterlimit="10"/>
</g>
<defs>
<clipPath id="clip0_66_197">
<rect width="40" height="49.8907" fill="white"/>
</clipPath>
</defs>
</svg>
