<svg width="189" height="163" viewBox="0 0 189 163" fill="none" xmlns="http://www.w3.org/2000/svg">
<path d="M96.0603 162.67C140.98 162.67 177.395 126.255 177.395 81.335C177.395 36.4149 140.98 0 96.0603 0C51.1403 0 14.7253 36.4149 14.7253 81.335C14.7253 126.255 51.1403 162.67 96.0603 162.67Z" fill="#56DEE7"/>
<path d="M146.313 96.9391C137.09 88.891 115.776 70.3547 110.001 66.0236C106.703 63.5429 104.454 62.2293 102.478 61.6437C101.587 61.3753 100.359 61.0703 98.781 61.0703C97.3129 61.0703 95.7349 61.3347 94.0919 61.8593C90.3627 63.0386 86.6416 65.9952 83.0466 68.85L82.8637 68.9965C79.5168 71.6602 76.056 74.4133 73.437 74.9989C72.2942 75.2551 71.1189 75.3894 69.9436 75.3894C67.0115 75.3853 64.3762 74.5395 63.388 73.2788C63.2254 73.0714 63.3271 72.7338 63.7093 72.2498L63.7622 72.1848L71.8754 63.4413C78.2317 57.089 84.2342 51.0865 98.049 50.7693C98.2767 50.7612 98.5125 50.7611 98.7403 50.7611C107.341 50.7652 115.939 54.6165 116.902 55.0638C124.967 58.9963 133.287 60.9931 141.657 61.0012C150.376 61.0053 164.963 56.0886 174.423 51.7331C173.369 50.8425 173.874 49.8908 172.739 49.0409C164.431 52.644 149.314 57.3127 141.677 57.3086C133.877 57.3046 126.081 55.4257 118.513 51.7331C118.114 51.542 108.618 47.0685 98.7444 47.0645C98.4881 47.0645 98.2237 47.0686 97.9635 47.0726C86.357 47.3451 79.8217 51.4647 75.4256 55.076C71.1474 55.1776 67.4629 56.2106 64.177 57.1256C61.2489 57.9389 58.7194 58.6466 56.255 58.6426C55.2383 58.6426 53.4081 58.5489 53.2455 58.5449C50.4069 58.4595 33.3835 53.677 22.0129 49.3743C20.8498 50.1958 17.7184 50.5293 16.6285 51.3956C28.5034 56.2635 47.7107 61.8226 52.2736 62.1154C53.5424 62.2009 54.8966 62.3432 56.2509 62.3473C59.2684 62.3473 62.2778 61.5014 65.1937 60.684C66.9139 60.2001 68.813 59.6713 70.8098 59.2931C70.277 59.8177 69.7444 60.3465 69.2116 60.8833L60.9642 69.7976C60.3176 70.4564 58.9064 72.201 59.8377 74.3564C60.2037 75.2267 60.9561 76.0523 62.0053 76.764C63.9696 78.0857 67.4873 78.9803 70.7529 78.9844C71.9933 78.9844 73.1645 78.8624 74.2422 78.6184C77.6989 77.8457 81.3224 74.9583 85.1655 71.9042C88.2237 69.4723 92.571 66.3856 95.8976 65.4788C96.8289 65.2266 97.9676 65.068 98.8867 65.068C99.1592 65.068 99.4195 65.0801 99.6594 65.1126C101.86 65.3932 103.982 66.1375 107.781 68.9883C114.548 74.0717 144.491 100.266 144.784 100.526C144.804 100.542 146.716 102.189 146.582 104.926C146.512 106.451 145.662 107.809 144.19 108.749C142.913 109.558 141.596 109.973 140.262 109.973C138.261 109.969 136.882 109.034 136.793 108.969C136.683 108.879 126.423 99.4727 122.649 96.3088C122.047 95.8126 121.461 95.3653 120.872 95.3653C120.554 95.3653 120.278 95.4994 120.087 95.7353C119.493 96.4673 120.156 97.48 120.941 98.1469L132.925 110.193C132.942 110.205 134.418 111.592 134.58 113.438C134.674 115.435 133.723 117.106 131.738 118.407C130.323 119.339 128.891 119.81 127.492 119.81C125.65 119.81 124.357 118.973 124.072 118.773L122.352 117.078C119.212 113.987 115.967 110.79 113.592 108.806C113.011 108.326 112.396 107.879 111.807 107.879C111.514 107.879 111.254 107.984 111.05 108.2C110.782 108.501 110.591 109.046 111.266 109.94C111.547 110.306 111.872 110.616 111.872 110.616L120.619 120.441C120.693 120.526 122.421 122.584 120.815 124.63L120.505 125.024C120.245 125.313 119.961 125.577 119.692 125.809C118.2 127.033 116.207 127.163 115.418 127.163C114.995 127.163 114.588 127.127 114.235 127.061C113.372 126.907 112.795 126.667 112.51 126.334L112.409 126.224C111.929 125.728 107.52 121.23 103.872 118.184C103.393 117.777 102.795 117.273 102.173 117.273C101.868 117.273 101.591 117.391 101.384 117.627C100.66 118.416 101.746 119.599 102.205 120.03L109.664 128.257C109.655 128.33 109.562 128.501 109.379 128.761C109.115 129.127 108.208 130.034 105.499 130.372C105.178 130.417 104.84 130.433 104.511 130.433C101.717 130.433 98.7443 129.079 97.2111 128.265C97.9065 126.789 98.2685 125.166 98.2685 123.54C98.2726 117.399 93.2867 112.405 87.15 112.401C87.0199 112.401 86.8775 112.405 86.7474 112.409C86.9467 109.607 86.5522 104.3 81.1027 101.961C79.537 101.282 77.9714 100.937 76.4504 100.937C75.263 100.937 74.1161 101.14 73.0425 101.555C71.9119 99.3587 70.0412 97.7646 67.593 96.9309C66.2429 96.4632 64.8968 96.2274 63.6036 96.2274C61.3344 96.2274 59.248 96.8944 57.3854 98.2201C55.6042 95.9997 52.9039 94.6821 50.0653 94.6821C47.5806 94.6821 45.1893 95.6784 43.4203 97.4312C41.0982 95.6581 31.887 89.8101 7.24248 84.2143C6.04685 83.9459 3.30991 83.1569 1.63034 82.6689C1.34974 84.0028 1.13827 85.3529 1 86.7153C1 86.7153 5.54665 87.8012 6.43727 88.0045C31.6186 93.5963 39.9391 99.4117 41.3462 100.514C40.8704 101.657 40.6224 102.893 40.6183 104.137C40.6183 109.339 44.8477 113.576 50.0532 113.58C50.6388 113.58 51.2163 113.531 51.7856 113.426C52.5705 117.252 55.0756 120.156 58.9024 121.645C60.0208 122.072 61.1554 122.295 62.2656 122.295C62.9854 122.295 63.7052 122.206 64.4128 122.027C65.1163 123.82 66.7106 126.061 70.2649 127.505C71.5134 128.009 72.7619 128.269 73.9738 128.269C74.962 128.269 75.9299 128.099 76.8531 127.757C78.557 131.909 82.6156 134.658 87.1337 134.658C90.1309 134.662 93.0062 133.442 95.1047 131.279C96.9022 132.279 100.692 134.085 104.523 134.089C105.019 134.089 105.483 134.052 105.951 133.999C109.757 133.52 111.526 132.031 112.339 130.872C112.486 130.669 112.616 130.453 112.73 130.234C113.629 130.49 114.617 130.701 115.747 130.705C117.83 130.705 119.822 129.998 121.839 128.53C123.82 127.102 125.227 125.053 125.43 123.304C125.434 123.284 125.439 123.255 125.443 123.231C126.11 123.369 126.797 123.438 127.476 123.438C129.615 123.438 131.722 122.771 133.731 121.453C137.61 118.912 138.281 115.589 138.22 113.413C138.899 113.556 139.591 113.629 140.282 113.629C142.291 113.629 144.263 113.023 146.142 111.827C148.546 110.29 149.994 107.936 150.209 105.199C150.364 103.336 149.9 101.457 148.92 99.8468C155.419 97.0489 170.27 91.628 187.761 87.6873C187.656 86.333 187.461 84.991 187.217 83.6571C166.061 88.342 150.27 95.1782 146.313 96.9391ZM87.1419 131.14C83.0304 131.136 79.6916 127.944 79.5411 123.873C79.5289 123.527 79.4964 122.6 78.7116 122.6C78.3862 122.6 78.1097 122.791 77.7844 123.084C76.8815 123.922 75.7307 124.776 74.0511 124.776C73.2865 124.776 72.4609 124.597 71.5907 124.239C67.2514 122.482 67.1905 119.501 67.3694 118.302C67.4182 117.984 67.4304 117.647 67.2108 117.391L66.9464 117.151H66.6739C66.4543 117.151 66.2307 117.24 65.9176 117.46C64.661 118.338 63.4572 118.769 62.2331 118.769C61.558 118.769 60.8707 118.635 60.1753 118.367C54.4615 116.142 54.9129 110.75 55.1935 109.127C55.2341 108.798 55.1529 108.542 54.9414 108.371L54.5388 108.037L54.1605 108.399C53.0462 109.473 51.5904 110.058 50.0613 110.058C46.7875 110.054 44.1239 107.395 44.1279 104.125C44.1279 100.851 46.7957 98.1916 50.0694 98.1957C53.026 98.1957 55.5433 100.42 55.9215 103.373L56.1248 104.967L56.9991 103.617C57.0967 103.458 59.4961 99.8346 63.9044 99.8386C64.7422 99.8386 65.6085 99.9728 66.4788 100.241C69.9925 101.315 70.5862 104.503 70.6797 105.829C70.7448 106.602 71.2938 106.638 71.3995 106.638C71.7045 106.638 71.9282 106.447 72.0827 106.28C72.7497 105.589 74.1933 104.438 76.4544 104.438C77.4874 104.442 78.5896 104.686 79.7282 105.174C85.3119 107.57 82.7782 114.666 82.7498 114.743C82.2699 115.923 82.2496 116.439 82.701 116.74L82.9207 116.846H83.0832C83.3354 116.846 83.6486 116.736 84.1651 116.561C84.9256 116.301 86.0724 115.902 87.146 115.906C91.351 115.951 94.7712 119.375 94.7712 123.532C94.763 127.728 91.3429 131.14 87.1419 131.14Z" fill="white" stroke="white"/>
</svg>
