<svg width="40" height="40" viewBox="0 0 40 40" fill="none" xmlns="http://www.w3.org/2000/svg">
<circle cx="20" cy="20" r="20" fill="#56DEE7"/>
<path d="M28.5647 12.2116C27.144 11.2985 26.1186 9.8374 25.7987 8.1342C25.7296 7.76621 25.6916 7.38749 25.6916 7H21.1573L21.1501 24.9139C21.0739 26.92 19.399 28.5301 17.3458 28.5301C16.7077 28.5301 16.1068 28.3728 15.5778 28.0983C14.3646 27.469 13.5343 26.2153 13.5343 24.7727C13.5343 22.7008 15.2442 21.0151 17.3458 21.0151C17.7381 21.0151 18.1145 21.0789 18.4705 21.1888V16.6255C18.1021 16.5761 17.7278 16.5452 17.3458 16.5452C12.7438 16.5452 9 20.236 9 24.7727C9 27.5561 10.4107 30.0194 12.5629 31.5089C13.9185 32.4471 15.5675 33 17.3458 33C21.9478 33 25.6916 29.3093 25.6916 24.7727V15.6888C27.4701 16.9471 29.6489 17.6886 32 17.6886V13.2187C30.7335 13.2187 29.5539 12.8475 28.5647 12.2116" fill="white"/>
</svg>
