<svg width="42" height="42" viewBox="0 0 42 42" fill="none" xmlns="http://www.w3.org/2000/svg">
<path d="M39.4713 13.3666C38.4617 10.9371 36.9866 8.73068 35.1226 6.87739C31.3679 3.08698 26.3378 1 21.0026 1C9.98459 1 1 9.98639 1 20.9973C1.00535 24.7592 2.07019 28.4372 4.05369 31.6283L4.54066 32.3775L2.53223 39.7585L10.1023 37.7732L10.8265 38.2067C13.907 40.0314 17.4352 41 21.0241 41C32.0439 41 41.0284 32.0439 40.9696 21.0205C40.9785 18.3931 40.4684 15.7906 39.4713 13.3666ZM32.7913 29.5913C32.3061 30.9987 29.9034 32.2829 28.7404 32.4542C27.6934 32.6022 26.3877 32.6736 24.9607 32.2169C24.0813 31.9494 22.9647 31.5802 21.5377 30.9505C15.5123 28.3481 11.5596 22.287 11.2688 21.8767C10.9709 21.4789 8.81979 18.6197 8.81979 15.6605C8.81979 12.7013 10.3717 11.2439 10.8996 10.6339C11.4579 10.0274 12.0894 9.87936 12.5032 9.87936H13.668C14.0301 9.90969 14.5474 9.76704 15.029 10.9247C15.5123 12.143 16.7217 15.1021 16.8769 15.3929C17.0196 15.6782 17.1159 16.0279 16.9233 16.4328C16.7217 16.8181 16.6022 17.0981 16.3114 17.4317C16.0207 17.7706 15.6765 18.2111 15.4142 18.4769C15.0932 18.7855 14.8078 19.1012 15.1538 19.713C15.5106 20.3195 16.6985 22.287 18.5001 23.8834C20.7814 25.924 22.7239 26.5768 23.3304 26.8729C23.9368 27.1833 24.3061 27.1351 24.6379 26.7248C24.9822 26.3396 26.1238 24.9786 26.5376 24.3721C26.9425 23.7835 27.3348 23.8852 27.8931 24.0868C28.4282 24.3008 31.3874 25.7581 31.9939 26.0435C32.6004 26.3414 32.9696 26.4644 33.1355 26.7266C33.3032 26.9942 33.3032 28.1822 32.7913 29.5913Z" fill="#56DEE7" stroke="white" stroke-width="0.25" stroke-miterlimit="10"/>
</svg>
