<svg width="68" height="40" viewBox="0 0 68 40" fill="none" xmlns="http://www.w3.org/2000/svg">
<g clip-path="url(#clip0_105_327)">
<path d="M2.88652 13.3314H12.428V1.07948H17.6151V0H0V1.07948H2.88652V13.3314Z" fill="#DF6FA8"/>
<path d="M20.7956 30.6939C19.1639 32.3942 16.962 33.2444 14.1899 33.2444H12.428V20.9905H2.88652V33.2444H0V34.3238H25.9333L26.8626 22.8509H25.8347C24.1399 26.378 22.4588 28.9937 20.7956 30.6939Z" fill="#DF6FA8"/>
<path d="M33.3065 20.9905H32.0359V33.3907H29.3447V34.3219H35.9977V33.3907H33.3065V20.9905Z" fill="#DF6FA8"/>
<path d="M32.0359 13.3314H33.3065V2.59786H33.5038L36.416 13.3314H45.9911L42.556 0H29.3447V0.931198H32.0359V13.3314Z" fill="#DF6FA8"/>
<path d="M54.9347 0L51.8351 13.3314H53.1096L55.57 2.74614H55.7673V13.3314H65.3088V0.931198H68V0H54.9347Z" fill="#DF6FA8"/>
<path d="M65.3089 20.9905H55.7674V33.3907H53.0762V34.3219H68.0001V33.3907H65.3089V20.9905Z" fill="#DF6FA8"/>
<path d="M50.0534 20.9905L49.063 25.2511L47.964 20.9905H38.4955L42.114 34.3219H48.2303L51.33 20.9905H50.0534Z" fill="#DF6FA8"/>
<path d="M21.7663 39.8636L21.421 38.8395H20.4838L20.1188 39.8636H20.474V39.9545H19.7499V39.8636H19.9728L21.1803 36.6034H21.569L22.7627 39.8636H22.9797V39.9545H21.4309V39.8636H21.7663ZM20.9712 37.4911L20.5253 38.7347H21.3816L20.9712 37.4911ZM24.1497 36.6311H25.8544V36.7359H25.3532V39.8478H25.5229C25.7913 39.8478 26.0043 39.7647 26.1622 39.6006C26.324 39.4365 26.4858 39.1835 26.6495 38.8414H26.7482L26.6574 39.9526H24.1497V39.8478H24.4299V36.7359H24.1497V36.6311ZM28.0306 36.6311H29.4749V36.722H29.2144V39.8636H29.4749V39.9545H28.0306V39.8636H28.2911V36.722H28.0306V36.6311ZM32.1759 39.9011C32.3338 39.9011 32.4719 39.8577 32.5922 39.7726C32.7146 39.6876 32.7777 39.5591 32.7777 39.3891C32.7777 39.2151 32.7106 39.0826 32.5784 38.9897C32.4482 38.8988 32.2627 38.8197 32.0201 38.7525C31.7794 38.6833 31.6057 38.622 31.4952 38.5726C31.3887 38.5212 31.2861 38.4559 31.1875 38.3729C30.9921 38.2088 30.8935 37.9537 30.8935 37.6097C30.8935 37.329 30.9921 37.0858 31.1914 36.8841C31.3926 36.6825 31.6689 36.5797 32.0161 36.5797C32.1838 36.5797 32.3575 36.6054 32.537 36.6548C32.7205 36.7023 32.8329 36.726 32.8783 36.726C32.9217 36.726 32.9612 36.6943 32.9967 36.6311H33.048L33.0815 37.59H33.0066C32.8546 37.3151 32.6948 37.0957 32.5291 36.9296C32.3653 36.7616 32.1858 36.6785 31.9885 36.6785C31.7951 36.6785 31.6452 36.724 31.5387 36.8169C31.4321 36.9059 31.3769 37.0265 31.3769 37.1767C31.3769 37.325 31.44 37.4417 31.5663 37.5227C31.6965 37.6018 31.8543 37.6671 32.0398 37.7165C32.2253 37.7679 32.3476 37.8015 32.4048 37.8213C32.464 37.841 32.537 37.8667 32.6218 37.9023C32.7106 37.934 32.7816 37.9696 32.8349 38.0071C32.8921 38.0427 32.9494 38.0882 33.0105 38.1455C33.0737 38.1989 33.123 38.2602 33.1565 38.3254C33.2414 38.4777 33.2848 38.6576 33.2848 38.8671C33.2848 39.2092 33.1782 39.484 32.9632 39.6936C32.7521 39.8992 32.4719 40.002 32.1246 40.002C31.9451 40.002 31.7379 39.9783 31.5051 39.9308C31.2743 39.8834 31.146 39.8596 31.1223 39.8596C31.0789 39.8596 31.0355 39.9071 30.9941 40.002H30.927L30.8797 38.8731H30.9606C31.0987 39.1479 31.2762 39.3891 31.4913 39.5947C31.7083 39.7983 31.9372 39.9011 32.1759 39.9011ZM36.3745 39.8636L36.0292 38.8395H35.0921L34.727 39.8636H35.0822V39.9545H34.3581V39.8636H34.581L35.7885 36.6034H36.1772L37.3709 39.8636H37.5879V39.9545H36.0391V39.8636H36.3745ZM35.5794 37.4911L35.1335 38.7347H35.9898L35.5794 37.4911ZM42.039 38.2345C42.039 38.8869 41.8555 39.3397 41.4905 39.5967C41.1532 39.8339 40.6895 39.9526 40.0976 39.9526H38.7579V39.8616H39.0697V36.72H38.7579V36.6291H40.2219C40.8276 36.6291 41.2834 36.7537 41.5852 37.0047C41.8891 37.2539 42.039 37.6631 42.039 38.2345ZM39.995 39.8636H40.1745C40.4942 39.8636 40.7211 39.7509 40.8572 39.5275C40.9953 39.3001 41.0663 38.9205 41.0663 38.3887V38.1139C41.0663 37.4021 40.9302 36.9731 40.6599 36.8288C40.5297 36.7596 40.3482 36.724 40.1114 36.724H39.997V39.8636H39.995ZM45.6477 38.4875V38.1356C45.6477 37.5563 45.6201 37.1906 45.5628 37.0403C45.4997 36.8664 45.409 36.7596 45.2925 36.7181C45.2255 36.6924 45.1465 36.6805 45.0518 36.6805C44.9571 36.6805 44.8743 36.6924 44.8052 36.7181C44.7381 36.7438 44.6829 36.7873 44.6395 36.8505C44.5961 36.9138 44.5586 36.981 44.531 37.0502C44.5053 37.1194 44.4856 37.2183 44.4698 37.3448C44.4501 37.5287 44.4422 37.7995 44.4422 38.1554V38.4974C44.4422 38.883 44.456 39.1578 44.4856 39.3238C44.5171 39.486 44.5546 39.6006 44.6 39.6698C44.6987 39.824 44.8486 39.9031 45.0538 39.9031C45.3024 39.9031 45.4642 39.7983 45.5372 39.5907C45.6102 39.3752 45.6477 39.0095 45.6477 38.4875ZM45.042 40C44.5152 40 44.1206 39.8577 43.8582 39.573C43.5997 39.2843 43.4695 38.8711 43.4695 38.3294C43.4695 37.7857 43.6076 37.3586 43.8858 37.0482C44.166 36.7359 44.5625 36.5777 45.0735 36.5777C45.5846 36.5777 45.9693 36.726 46.2297 37.0245C46.4921 37.3191 46.6224 37.7382 46.6224 38.2819C46.6224 38.8256 46.4902 39.2487 46.2238 39.5492C45.9634 39.8497 45.5688 40 45.042 40ZM49.351 39.9011C49.5089 39.9011 49.647 39.8577 49.7673 39.7726C49.8897 39.6876 49.9528 39.5591 49.9528 39.3891C49.9528 39.2151 49.8857 39.0826 49.7535 38.9897C49.6233 38.8988 49.4378 38.8197 49.1952 38.7525C48.9545 38.6833 48.7808 38.622 48.6703 38.5726C48.5638 38.5212 48.4612 38.4559 48.3626 38.3729C48.1672 38.2088 48.0686 37.9537 48.0686 37.6097C48.0686 37.329 48.1672 37.0858 48.3665 36.8841C48.5678 36.6825 48.844 36.5797 49.1912 36.5797C49.3589 36.5797 49.5326 36.6054 49.7121 36.6548C49.8956 36.7023 50.0081 36.726 50.0534 36.726C50.0988 36.726 50.1363 36.6943 50.1718 36.6311H50.2231L50.2567 37.59H50.1817C50.0298 37.3151 49.8699 37.0957 49.7042 36.9296C49.5404 36.7616 49.3609 36.6785 49.1636 36.6785C48.9702 36.6785 48.8203 36.724 48.7138 36.8169C48.6072 36.9059 48.552 37.0265 48.552 37.1767C48.552 37.325 48.6151 37.4417 48.7414 37.5227C48.8716 37.6018 49.0294 37.6671 49.2149 37.7165C49.4004 37.7679 49.5227 37.8015 49.5799 37.8213C49.6391 37.841 49.7121 37.8667 49.7969 37.9023C49.8857 37.934 49.9568 37.9696 50.01 38.0071C50.0672 38.0427 50.1245 38.0882 50.1856 38.1455C50.2488 38.1989 50.2981 38.2602 50.3316 38.3254C50.4165 38.4777 50.4599 38.6576 50.4599 38.8671C50.4599 39.2092 50.3533 39.484 50.1383 39.6936C49.9272 39.8992 49.647 40.002 49.2997 40.002C49.1202 40.002 48.913 39.9783 48.6802 39.9308C48.4494 39.8834 48.3211 39.8596 48.2974 39.8596C48.254 39.8596 48.2106 39.9071 48.1692 40.002H48.1021L48.0548 38.8731H48.1357C48.2738 39.1479 48.4513 39.3891 48.6664 39.5947C48.8834 39.7983 49.1123 39.9011 49.351 39.9011Z" fill="#DF6FA8"/>
<path d="M14.3852 17.2855C14.8193 16.981 15.1764 16.6173 15.4605 16.1922C15.7447 15.7671 15.8867 15.3954 15.8867 15.0791C15.8867 14.7035 15.7328 14.5176 15.425 14.5176C14.8903 14.5176 14.3616 14.9012 13.8407 15.6663C13.3198 16.4314 12.8798 17.2558 12.5188 18.1356C12.1597 19.0154 11.8992 19.7232 11.7375 20.261C12.14 20.004 12.572 19.8063 13.0337 19.6639C13.4954 19.5216 13.894 19.4504 14.2314 19.4504C14.4247 19.4504 14.6003 19.4761 14.7542 19.5295C14.9081 19.5829 15.0186 19.6441 15.0837 19.7153C15.1449 19.7825 15.1764 19.8418 15.1764 19.8933C15.1764 19.9071 15.1725 19.915 15.1626 19.915C15.1488 19.915 15.1291 19.9031 15.1054 19.8794C15.0383 19.8122 14.9298 19.7509 14.7759 19.6916C14.622 19.6323 14.4405 19.6026 14.2333 19.6026C13.9354 19.6026 13.6138 19.658 13.2705 19.7707C12.9272 19.8814 12.6155 20.0119 12.3373 20.1582C12.0571 20.3045 11.8677 20.429 11.769 20.5279C11.7355 20.5615 11.6842 20.5773 11.6132 20.5773C11.5461 20.5773 11.4908 20.5635 11.4435 20.5338C11.3961 20.5061 11.3764 20.4646 11.3863 20.4132C11.477 19.9822 11.7059 19.2804 12.0748 18.3096C12.4438 17.3389 12.9252 16.4393 13.5171 15.6129C14.109 14.7845 14.7581 14.3713 15.4625 14.3713C15.648 14.3713 15.8078 14.4405 15.9459 14.5809C16.084 14.7212 16.1511 14.911 16.1511 15.1542C16.1511 15.4765 15.9933 15.8521 15.6795 16.2792C15.3639 16.7062 14.9791 17.072 14.5214 17.3784C14.0636 17.6849 13.6375 17.8371 13.2389 17.8371C13.1778 17.8371 13.1245 17.8292 13.0791 17.8114C13.0337 17.7956 13.012 17.7798 13.012 17.7659C13.016 17.762 13.0258 17.756 13.0397 17.7521C13.0535 17.7481 13.0732 17.7442 13.0969 17.7442C13.523 17.7402 13.9532 17.588 14.3852 17.2855Z" fill="#DF6FA8"/>
<path d="M19.6236 17.6987C19.6473 17.6987 19.6591 17.7205 19.6591 17.762C19.6591 17.7857 19.6512 17.8173 19.6374 17.8549C19.5802 17.9735 19.4342 18.1791 19.2014 18.4698C18.9666 18.7624 18.72 19.0233 18.4595 19.2527C18.1991 19.484 17.988 19.5987 17.8282 19.5987C17.6763 19.5987 17.5441 19.5334 17.4296 19.4029C17.3152 19.2725 17.2599 19.0649 17.2599 18.7802C17.2599 18.6951 17.2639 18.622 17.2738 18.5587C17.1692 18.7149 17.0626 18.8454 16.9502 18.9462C16.8397 19.049 16.741 19.0985 16.6562 19.0985C16.3997 19.0985 16.2734 18.9284 16.2734 18.5864C16.2734 18.4717 16.2951 18.3136 16.3366 18.1099C16.38 17.9063 16.4392 17.7541 16.5141 17.6552C16.5477 17.6117 16.597 17.5742 16.6641 17.5405C16.7312 17.5069 16.7844 17.4911 16.8279 17.4911C16.8949 17.4911 16.9107 17.5247 16.8772 17.59C16.7825 17.7699 16.7095 17.9597 16.6601 18.1554C16.6108 18.3531 16.5852 18.5192 16.5852 18.6576C16.5852 18.8039 16.6108 18.879 16.6641 18.879C16.7489 18.879 16.8752 18.7643 17.0449 18.533C17.2126 18.3037 17.3803 17.9933 17.546 17.6038C17.5697 17.5524 17.6131 17.5089 17.6782 17.4753C17.7414 17.4417 17.8025 17.4259 17.8597 17.4259C17.8933 17.4259 17.917 17.4338 17.9347 17.4476C17.9505 17.4615 17.9544 17.4832 17.9446 17.5109C17.9406 17.5247 17.8834 17.6552 17.7769 17.9023C17.6703 18.1495 17.6171 18.5152 17.6171 18.9976C17.6171 19.2586 17.7098 19.3891 17.8933 19.3891C18.0255 19.3891 18.207 19.2843 18.4359 19.0767C18.6647 18.8672 18.8897 18.6299 19.1067 18.361C19.3237 18.0921 19.4756 17.8905 19.5605 17.7521C19.5842 17.7165 19.6059 17.6987 19.6236 17.6987Z" fill="#DF6FA8"/>
<path d="M22.2675 17.6908C22.2872 17.6908 22.2951 17.7106 22.2951 17.7481C22.2951 17.7758 22.2872 17.8114 22.2734 17.8549C22.2221 17.9874 22.0998 18.2048 21.9084 18.5054C21.717 18.8059 21.4901 19.0846 21.2297 19.3417C20.9692 19.5987 20.7127 19.7252 20.4621 19.7252C20.1267 19.7252 19.8584 19.5829 19.6591 19.2982C19.4599 19.0135 19.3612 18.6022 19.3612 18.0664C19.3612 17.592 19.4717 17.1155 19.6907 16.639C19.9117 16.1625 20.178 15.7711 20.4898 15.4646C20.8015 15.1582 21.0797 15.006 21.3204 15.006C21.4388 15.006 21.5315 15.0435 21.5966 15.1167C21.6637 15.1898 21.6953 15.2966 21.6953 15.433C21.6953 15.6366 21.5927 15.8857 21.3855 16.1764C21.1803 16.469 20.9278 16.7596 20.6318 17.0522C20.3359 17.3448 20.0537 17.592 19.7834 17.7956C19.7598 17.9478 19.7479 18.0842 19.7479 18.2088C19.7479 18.6161 19.815 18.9462 19.9472 19.1973C20.0794 19.4484 20.251 19.575 20.4582 19.575C20.6812 19.575 20.91 19.4543 21.1468 19.2151C21.3835 18.9759 21.567 18.7545 21.6973 18.5528C21.8275 18.3511 21.9912 18.0842 22.1905 17.7521C22.2201 17.7126 22.2438 17.6908 22.2675 17.6908ZM20.8429 15.5516C20.6318 15.7908 20.4306 16.0973 20.2392 16.469C20.0478 16.8407 19.9117 17.2124 19.8308 17.5821C20.3043 17.155 20.7029 16.7537 21.0245 16.3761C21.3461 15.9984 21.5078 15.6742 21.5078 15.4053C21.5078 15.263 21.4585 15.1918 21.3579 15.1918C21.2257 15.1918 21.0541 15.3124 20.8429 15.5516Z" fill="#DF6FA8"/>
<path d="M21.1152 23.4283C20.8587 23.276 20.7324 23.0566 20.7324 22.7659C20.7324 22.5564 20.8113 22.3369 20.9712 22.1076C21.129 21.8782 21.3579 21.6845 21.6538 21.5303C21.9498 21.3761 22.2911 21.299 22.6798 21.299C22.812 21.299 22.9304 21.3069 23.0349 21.3207C23.1395 21.3345 23.2441 21.3662 23.3467 21.4136C23.394 21.4334 23.4374 21.4611 23.4789 21.4986C23.5183 21.5362 23.54 21.5678 23.54 21.5916C23.54 21.6054 23.5302 21.6133 23.5124 21.6133C23.4986 21.6133 23.4729 21.6054 23.4335 21.5916C23.2007 21.5006 22.9442 21.4571 22.6601 21.4571C22.3325 21.4571 22.0405 21.5263 21.7801 21.6667C21.5197 21.8071 21.3164 21.9791 21.1724 22.1867C21.0284 22.3923 20.9554 22.586 20.9554 22.7659C20.9554 23.2404 21.3776 23.4777 22.2201 23.4777C22.7074 23.4777 23.25 23.3393 23.8458 23.0605C24.4417 22.7837 24.9507 22.3765 25.373 21.8407C25.7952 21.3049 26.0043 20.6742 26.0043 19.9466C26.0043 19.6343 25.955 19.3496 25.8544 19.0965C25.7557 18.8434 25.6216 18.6438 25.4538 18.4994C25.2861 18.3551 25.1007 18.282 24.8955 18.282C24.6962 18.282 24.5127 18.3116 24.345 18.3709C24.1773 18.4302 23.9721 18.5212 23.7314 18.6457C23.5144 18.7604 23.323 18.8454 23.1592 18.9047C22.9955 18.964 22.8218 18.9937 22.6364 18.9937C22.4233 18.9937 22.2556 18.9304 22.1313 18.8019C22.009 18.6734 21.9458 18.5212 21.9458 18.3472C21.9458 18.1772 21.9892 18.021 22.0741 17.8806C22.1589 17.7402 22.2556 17.6097 22.3661 17.4852C22.3996 17.4476 22.4351 17.418 22.4766 17.3962C22.516 17.3745 22.5515 17.3646 22.5792 17.3646C22.6127 17.3646 22.6285 17.3765 22.6285 17.4002C22.6285 17.4101 22.6167 17.4318 22.593 17.4634C22.5318 17.5346 22.4647 17.6631 22.3898 17.851C22.3168 18.0388 22.2793 18.2207 22.2793 18.3946C22.2793 18.533 22.3069 18.6438 22.3641 18.7288C22.4213 18.8138 22.5101 18.8573 22.6344 18.8573C22.7962 18.8573 22.9442 18.8316 23.0823 18.7782C23.2204 18.7268 23.3822 18.6477 23.5716 18.5429C23.8182 18.4105 24.0353 18.3096 24.2247 18.2444C24.4141 18.1772 24.637 18.1455 24.8915 18.1455C25.1618 18.1455 25.4104 18.2207 25.6373 18.3729C25.8642 18.5251 26.0438 18.7387 26.1779 19.0135C26.3121 19.2883 26.3772 19.5987 26.3772 19.9466C26.3772 20.7058 26.1424 21.3662 25.6748 21.9296C25.2052 22.4911 24.6429 22.9201 23.984 23.2147C23.325 23.5093 22.737 23.6556 22.2161 23.6556C21.7387 23.6556 21.3717 23.5785 21.1152 23.4283Z" fill="#DF6FA8"/>
<path d="M39.0499 20.3776C38.9552 20.1008 38.9079 19.7667 38.9079 19.3772C38.9079 18.8316 38.9927 18.2167 39.1644 17.5346C39.3341 16.8505 39.5669 16.1823 39.8608 15.5279C39.3775 16.036 38.9454 16.5599 38.5646 17.1016C38.1838 17.6433 37.8878 18.1099 37.6807 18.5034C37.5189 18.8118 37.3985 19.0273 37.3157 19.1479C37.2328 19.2685 37.1558 19.3298 37.0848 19.3298C36.9704 19.3298 36.8895 19.2586 36.8402 19.1163C36.7908 18.9739 36.7652 18.7683 36.7652 18.4974C36.7652 18.2028 36.7968 17.8055 36.8579 17.3013C36.925 16.7655 37.0118 16.2594 37.1203 15.7849C36.9881 15.8798 36.8046 16.0894 36.5699 16.4156C36.3351 16.7418 36.0391 17.2598 35.6781 17.9715C35.4137 18.4895 35.2164 18.8632 35.0881 19.0965C34.9599 19.3298 34.8494 19.4998 34.7547 19.6085C34.66 19.7173 34.5653 19.7726 34.4706 19.7726C34.1865 19.7726 33.9951 19.5018 33.8984 18.962C33.8017 18.4203 33.7524 17.8252 33.7524 17.1748L33.7603 15.9371C33.7603 15.5674 33.7465 15.3005 33.7169 15.1364C33.6873 14.9723 33.632 14.8913 33.5472 14.8913C33.1644 14.8913 32.7047 15.0751 32.172 15.4429C31.6393 15.8106 31.1796 16.2515 30.7909 16.7675C30.4022 17.2815 30.2089 17.7363 30.2089 18.1297C30.2089 18.3195 30.2562 18.4638 30.3509 18.5647C30.4456 18.6635 30.6311 18.7149 30.9053 18.7149C31.0513 18.7149 31.2289 18.6971 31.4341 18.6615C31.6393 18.6259 31.9056 18.5686 32.2332 18.4875C32.2805 18.4777 32.3062 18.4737 32.3121 18.4737C32.3456 18.4737 32.3594 18.4836 32.3555 18.5014C32.3516 18.5212 32.3298 18.5429 32.2943 18.5647C32.2588 18.5884 32.2154 18.6081 32.1621 18.622C31.5979 18.7742 31.1579 18.8493 30.8402 18.8493C30.5561 18.8493 30.345 18.792 30.2089 18.6793C30.0727 18.5666 30.0037 18.3828 30.0037 18.1317C30.0037 17.7086 30.2148 17.2282 30.635 16.6864C31.0573 16.1447 31.5525 15.6801 32.1227 15.2906C32.6929 14.9011 33.1684 14.7074 33.5472 14.7074C33.8076 14.7074 33.9832 14.8181 34.072 15.0376C34.1628 15.259 34.2062 15.5773 34.2062 15.9945L34.1983 16.5283C34.1884 16.7853 34.1845 16.9751 34.1845 17.0977C34.1845 17.8094 34.2003 18.3986 34.2338 18.8671C34.2673 19.3337 34.3443 19.569 34.4686 19.569C34.5298 19.569 34.585 19.5433 34.6363 19.4939C34.6876 19.4444 34.7389 19.3693 34.7922 19.2705C34.8474 19.1716 34.9323 18.9996 35.0506 18.7584C35.2124 18.4302 35.3584 18.1337 35.4906 17.8687C35.9306 17.0146 36.2818 16.4156 36.5462 16.0716C36.8086 15.7276 37.0394 15.5556 37.2387 15.5556C37.3137 15.5556 37.3689 15.5813 37.4025 15.6307C37.436 15.6801 37.4518 15.7572 37.4518 15.862C37.4518 15.9668 37.4261 16.1843 37.3729 16.5164L37.288 17.0996C37.217 17.6354 37.1618 18.1159 37.1203 18.5409C37.0809 18.966 37.0671 19.1775 37.0809 19.1775C37.1085 19.1775 37.1381 19.1558 37.1657 19.1143C37.1933 19.0728 37.2505 18.97 37.3354 18.8078L37.5209 18.4599C37.8286 17.8905 38.1621 17.3369 38.5231 16.7972C38.8822 16.2594 39.3281 15.7335 39.8589 15.2214C39.9023 15.1839 39.9556 15.1542 40.0187 15.1325C40.0818 15.1107 40.1469 15.1008 40.214 15.1008C40.285 15.1008 40.3423 15.1147 40.3876 15.1404C40.433 15.1661 40.4449 15.2017 40.4271 15.2432C40.0483 16.2021 39.7622 17.068 39.5708 17.845C39.3794 18.62 39.2828 19.2744 39.2828 19.8063C39.2828 20.3242 39.3755 20.7038 39.559 20.945C39.5866 20.9826 39.6024 21.0123 39.6024 21.0301C39.6024 21.0439 39.5945 21.0518 39.5807 21.0518C39.557 21.0518 39.5215 21.036 39.4741 21.0024C39.2867 20.86 39.1446 20.6544 39.0499 20.3776Z" fill="#DF6FA8"/>
<path d="M43.7516 17.6987C43.7793 17.6987 43.795 17.7205 43.795 17.762C43.795 17.8055 43.7812 17.8509 43.7516 17.8964C43.6609 18.0526 43.5188 18.2266 43.3255 18.4164C43.1321 18.6062 42.9151 18.7683 42.6783 18.9008C42.4416 19.0332 42.2147 19.1004 41.9957 19.1004C41.7549 19.1004 41.5655 19.0253 41.4314 18.877C41.2972 18.7268 41.2281 18.5508 41.2281 18.3472C41.2281 18.1238 41.2814 17.9221 41.388 17.7383C41.4945 17.5564 41.6267 17.412 41.7865 17.3073C41.9444 17.2025 42.0923 17.1511 42.2304 17.1511C42.3054 17.1511 42.3705 17.1708 42.4258 17.2124C42.481 17.2539 42.5067 17.3013 42.5067 17.3587C42.5067 17.4872 42.4258 17.6018 42.262 17.7046C42.0982 17.8074 41.9009 17.8885 41.6681 17.9498C41.6346 18.0645 41.6188 18.1712 41.6188 18.2701C41.6188 18.7011 41.7609 18.9186 42.045 18.9186C42.2245 18.9186 42.4159 18.8592 42.6211 18.7406C42.8243 18.622 43.0157 18.4757 43.1972 18.3037C43.3768 18.1297 43.5208 17.9617 43.6313 17.7956C43.6648 17.7284 43.7043 17.6987 43.7516 17.6987ZM41.97 17.4417C41.8714 17.5326 41.7905 17.6473 41.7293 17.7897C41.8911 17.7383 42.0272 17.675 42.1377 17.6038C42.2482 17.5326 42.3054 17.4575 42.3054 17.3764C42.3054 17.329 42.2837 17.3053 42.2423 17.3053C42.1594 17.3072 42.0687 17.3507 41.97 17.4417Z" fill="#DF6FA8"/>
<path d="M45.8765 19.9862C45.7779 19.8419 45.691 19.6481 45.62 19.4029C45.549 19.1578 45.5135 18.8889 45.5135 18.5943C45.5135 18.2345 45.5529 17.8885 45.6338 17.5583C45.7147 17.2282 45.8094 16.898 45.9179 16.5659L45.9752 16.3879C45.7759 16.9296 45.551 17.4318 45.3004 17.8964C45.0498 18.361 44.7894 18.7347 44.523 19.0174C44.2547 19.3001 44.0061 19.4405 43.7733 19.4405C43.645 19.4405 43.5345 19.3753 43.4438 19.2448C43.351 19.1143 43.3057 18.968 43.3057 18.8079C43.3057 18.537 43.3747 18.2582 43.5148 17.9676C43.6549 17.677 43.8463 17.4358 44.0909 17.242C44.3356 17.0483 44.6019 16.9494 44.89 16.9494C44.9709 16.9494 45.0498 16.9593 45.1287 16.981C45.2076 17.0028 45.2609 17.0245 45.2885 17.0443C45.3162 17.0661 45.3043 17.0759 45.253 17.0759C44.9354 17.0759 44.6572 17.1807 44.4145 17.3923C44.1738 17.6038 43.9864 17.8569 43.8561 18.1495C43.7259 18.4441 43.6608 18.705 43.6608 18.9324C43.6608 19.0174 43.6766 19.0846 43.7062 19.136C43.7378 19.1855 43.7812 19.2112 43.8384 19.2112C44.0613 19.2112 44.2941 19.0491 44.5388 18.7268C44.7835 18.4045 45.0104 18.0289 45.2234 17.5979C45.4365 17.1689 45.6851 16.6311 45.9692 15.9866C46.1389 15.5931 46.2751 15.2887 46.3776 15.0752C46.4802 14.8616 46.5631 14.7153 46.6302 14.6343C46.6736 14.5829 46.7328 14.5394 46.8078 14.5058C46.8827 14.4721 46.9518 14.4563 47.013 14.4563C47.0564 14.4563 47.086 14.4662 47.1017 14.484C47.1175 14.5038 47.1175 14.5295 47.0978 14.5631C46.6854 15.4844 46.3836 16.3029 46.1882 17.0186C45.9949 17.7343 45.8962 18.3946 45.8962 18.9976C45.8962 19.1499 45.9041 19.3021 45.9179 19.4524C45.9377 19.656 45.9692 19.8102 46.0146 19.915C46.06 20.0198 46.0995 20.0929 46.135 20.1364C46.1705 20.1799 46.1764 20.1997 46.1527 20.1997C46.0679 20.2037 45.9752 20.1305 45.8765 19.9862Z" fill="#DF6FA8"/>
<path d="M47.7648 18.6517C47.7648 18.3867 47.8319 18.0684 47.964 17.6987C47.9838 17.6473 48.0252 17.6018 48.0883 17.5663C48.1515 17.5307 48.2126 17.5129 48.2699 17.5129C48.3369 17.5129 48.3606 17.5445 48.3409 17.6058C48.1377 18.1792 48.0351 18.624 48.0351 18.9364C48.0351 19.0412 48.0469 19.1281 48.0706 19.1993C48.0745 19.2092 48.0785 19.223 48.0785 19.2428C48.0785 19.2863 48.0647 19.3061 48.0351 19.3061C48.0153 19.3061 47.9917 19.2922 47.964 19.2626C47.8319 19.1301 47.7648 18.9265 47.7648 18.6517ZM48.4652 16.8328C48.4297 16.8545 48.3981 16.8644 48.3685 16.8644C48.3113 16.8644 48.2837 16.8268 48.2837 16.7497C48.2837 16.6173 48.3271 16.4611 48.4119 16.2792C48.4218 16.2555 48.4494 16.2357 48.4968 16.2179C48.5441 16.2021 48.5934 16.1922 48.6467 16.1922C48.7217 16.1922 48.7828 16.206 48.8282 16.2357C48.8736 16.2634 48.8854 16.3049 48.8677 16.3563C48.8539 16.3939 48.7947 16.4729 48.6901 16.5916L48.5619 16.7557C48.5323 16.7873 48.5007 16.811 48.4652 16.8328Z" fill="#DF6FA8"/>
<path d="M51.2037 19.9368C51.0814 19.654 51.0182 19.2903 51.0182 18.8434C51.0182 18.6299 51.0419 18.3571 51.0893 18.0249C51.1169 17.7778 51.1327 17.6315 51.1327 17.584C51.1327 17.4931 51.1169 17.4496 51.0833 17.4496C51.0123 17.4496 50.9235 17.505 50.817 17.6137C50.7104 17.7224 50.5842 17.8747 50.4362 18.0684C50.2981 18.2444 50.1975 18.367 50.1343 18.4342C50.0712 18.5034 50.0179 18.537 49.9745 18.537C49.9035 18.537 49.8403 18.4955 49.7871 18.4124C49.7318 18.3294 49.7062 18.2147 49.7062 18.0664C49.7062 17.9814 49.716 17.8925 49.7338 17.8035C49.7535 17.7323 49.791 17.6691 49.8502 17.6157C49.9094 17.5603 49.9627 17.5346 50.01 17.5346C50.0534 17.5346 50.0712 17.5583 50.0672 17.6058C50.0436 17.8569 50.0317 18.0348 50.0317 18.1396C50.0317 18.2345 50.0416 18.2819 50.0593 18.2819C50.0732 18.2681 50.1422 18.1732 50.2645 17.9972C50.3869 17.8213 50.5388 17.6513 50.7183 17.4891C50.8979 17.325 51.0695 17.244 51.2293 17.244C51.3379 17.244 51.4227 17.2895 51.4819 17.3824C51.5411 17.4753 51.5707 17.6097 51.5707 17.7837C51.5707 17.8351 51.5608 17.9379 51.5431 18.0902C51.4681 18.5607 51.4286 18.9719 51.4286 19.3278C51.4286 19.9585 51.5667 20.2748 51.841 20.2748C51.8785 20.2748 51.8982 20.2847 51.8982 20.3025C51.8982 20.3163 51.8844 20.3302 51.8548 20.3421C51.8272 20.3539 51.7877 20.3598 51.7404 20.3598C51.5056 20.3598 51.326 20.2195 51.2037 19.9368Z" fill="#DF6FA8"/>
<path d="M52.5592 19.6797C52.4783 19.569 52.4388 19.4286 52.4388 19.2626C52.4388 18.9265 52.5296 18.5706 52.7131 18.1989C52.8966 17.8272 53.1255 17.5168 53.4017 17.2697C53.6779 17.0225 53.9502 16.9 54.2146 16.9C54.3329 16.9 54.4197 16.9336 54.477 16.9988C54.5342 17.066 54.5618 17.1451 54.5618 17.24C54.5618 17.3211 54.5519 17.3843 54.5302 17.4318C54.5085 17.4792 54.4849 17.5069 54.4592 17.5168C54.4336 17.5267 54.4198 17.5188 54.4198 17.4951C54.4198 17.3389 54.4099 17.2301 54.3921 17.1669C54.3724 17.1056 54.3211 17.0739 54.2363 17.0739C54.0133 17.0739 53.7904 17.2202 53.5694 17.5109C53.3464 17.8035 53.1629 18.1376 53.015 18.5172C52.867 18.8968 52.794 19.1894 52.794 19.393C52.794 19.569 52.8315 19.656 52.9084 19.656C53.0031 19.656 53.159 19.5156 53.378 19.2329C53.595 18.9502 53.9324 18.4796 54.3862 17.8193L54.6782 17.4002C54.7058 17.3527 54.7532 17.3151 54.8203 17.2894C54.8874 17.2637 54.9525 17.2499 55.0195 17.2499C55.0768 17.2499 55.1221 17.2598 55.1537 17.2815C55.1873 17.3033 55.1971 17.3349 55.1813 17.3784C55.1202 17.5722 55.0669 17.7896 55.0255 18.0269C54.9821 18.2641 54.9623 18.4777 54.9623 18.6675C54.9623 18.8434 54.9742 18.9779 54.9978 19.0688C55.0215 19.1597 55.0491 19.2072 55.0827 19.2072C55.1971 19.2072 55.3688 19.1202 55.6016 18.9482C55.8344 18.7742 56.0633 18.5706 56.2902 18.3353C56.5171 18.1 56.6789 17.9043 56.7736 17.7481C56.7933 17.7106 56.817 17.6908 56.8446 17.6908C56.8643 17.6908 56.8722 17.7106 56.8722 17.7481C56.8722 17.7718 56.8643 17.8055 56.8505 17.847C56.8071 17.9557 56.669 18.1356 56.4342 18.3847C56.1994 18.6338 55.9528 18.8573 55.6923 19.0569C55.4319 19.2566 55.2287 19.3614 55.0807 19.3693C54.911 19.3792 54.7828 19.3159 54.6979 19.1815C54.6131 19.0471 54.5697 18.8236 54.5697 18.5152C54.5697 18.4065 54.5776 18.2839 54.5914 18.1495C54.6052 18.015 54.619 17.9043 54.6348 17.8193C53.7312 19.1677 53.1452 19.8399 52.8808 19.8399C52.7466 19.8478 52.6401 19.7924 52.5592 19.6797Z" fill="#DF6FA8"/>
</g>
<defs>
<clipPath id="clip0_105_327">
<rect width="68" height="40" fill="white"/>
</clipPath>
</defs>
</svg>
